# xmcd
#
# Track frame offsets:
#	150
#	22660
#	38046
#	49335
#	65896
#	77437
#	89554
#	109272
#	123459
#	143799
#
# Disc length: 2154
#
# Revision: 1
# Processed by: cddbd v1.5.1PL0 Copyright (c) Steve Scherf et al.
# Submitted via: VisiTrax 2.9.10.220 - For more info visit www.synapsa.com
# Normalized: r0:DSETVAR1
#
DISCID=8408680a
DTITLE=Various Artist - The Blues
DYEAR=1900
DGENRE=
TTITLE0=B.B. King - The Thrill Is Gone
TTITLE1=Clarence "Gatemouth" Brown - Somebody Got To Go
TTITLE2=Lightin' Hopkins - Just Sittin' Down Thinkin'
TTITLE3=Memphis Slim - Cold Blooded Women
TTITLE4=Leadbelly - Goodnight Irene
TTITLE5=Charles Brown - Trouble Blues
TTITLE6=Mike Bloomfield - Walkin' The Floor
TTITLE7=Buddy Guy - Broken-Hearted Blues
TTITLE8=Buddy Guy and Junior Wells - Everyday I've Got The Blues
TTITLE9=Lightin' Hopkins - Shake That Thing
EXTD=
EXTT0=
EXTT1=
EXTT2=
EXTT3=
EXTT4=
EXTT5=
EXTT6=
EXTT7=
EXTT8=
EXTT9=
PLAYORDER=
